<?xml version="1.0" encoding="UTF-8"?>
<svg xmlns="http://www.w3.org/2000/svg" xmlns:xlink="http://www.w3.org/1999/xlink" width="307.771pt" height="221.739pt" viewBox="0 0 307.771 221.739">
<defs>
<g>
<g id="glyph-0-0">
<path d="M 6.734375 -0.796875 C 6.734375 -0.84375 6.734375 -0.953125 6.609375 -0.953125 C 6.484375 -0.953125 6.484375 -0.875 6.484375 -0.8125 C 6.4375 -0.234375 6.15625 -0.03125 5.875 -0.03125 C 5.59375 -0.03125 5.5 -0.203125 5.421875 -0.359375 C 5.34375 -0.5625 5.265625 -1.15625 5.203125 -1.5625 C 5.140625 -2.125 5.0625 -2.71875 4.0625 -3.03125 C 4.921875 -3.28125 5.609375 -3.8125 5.609375 -4.5 C 5.609375 -5.390625 4.53125 -6.109375 3.21875 -6.109375 L 0.359375 -6.109375 L 0.359375 -5.84375 L 0.5625 -5.84375 C 1.25 -5.84375 1.265625 -5.734375 1.265625 -5.40625 L 1.265625 -0.703125 C 1.265625 -0.375 1.25 -0.28125 0.5625 -0.28125 L 0.359375 -0.28125 L 0.359375 0 C 0.78125 -0.03125 1.234375 -0.03125 1.65625 -0.03125 C 2.09375 -0.03125 2.53125 -0.03125 2.96875 0 L 2.96875 -0.28125 L 2.75 -0.28125 C 2.0625 -0.28125 2.046875 -0.375 2.046875 -0.703125 L 2.046875 -2.953125 L 3.125 -2.953125 C 3.765625 -2.953125 4.0625 -2.609375 4.09375 -2.5625 C 4.359375 -2.234375 4.359375 -2.109375 4.359375 -1.46875 C 4.359375 -0.875 4.359375 -0.46875 4.796875 -0.140625 C 5.203125 0.203125 5.75 0.203125 5.84375 0.203125 C 6.59375 0.203125 6.734375 -0.578125 6.734375 -0.796875 Z M 4.703125 -4.5 C 4.703125 -3.734375 4.3125 -3.171875 3.09375 -3.171875 L 2.046875 -3.171875 L 2.046875 -5.46875 C 2.046875 -5.703125 2.0625 -5.78125 2.234375 -5.8125 C 2.3125 -5.84375 2.609375 -5.84375 2.796875 -5.84375 C 3.5625 -5.84375 4.703125 -5.84375 4.703125 -4.5 Z M 4.703125 -4.5 "/>
</g>
<g id="glyph-0-1">
<path d="M 6.59375 0 L 6.59375 -0.28125 L 6.4375 -0.28125 C 5.875 -0.28125 5.78125 -0.359375 5.6875 -0.609375 L 3.65625 -6.21875 C 3.609375 -6.34375 3.59375 -6.40625 3.453125 -6.40625 C 3.296875 -6.40625 3.28125 -6.359375 3.234375 -6.21875 L 1.3125 -0.890625 C 1.203125 -0.59375 1 -0.28125 0.296875 -0.28125 L 0.296875 0 C 0.640625 -0.03125 0.890625 -0.03125 1.21875 -0.03125 L 2.234375 0 L 2.234375 -0.28125 C 1.71875 -0.28125 1.5625 -0.5625 1.5625 -0.734375 C 1.5625 -0.8125 1.578125 -0.859375 1.609375 -0.90625 L 2.015625 -2.0625 L 4.34375 -2.0625 L 4.828125 -0.703125 C 4.859375 -0.625 4.875 -0.59375 4.875 -0.546875 C 4.875 -0.28125 4.375 -0.28125 4.140625 -0.28125 L 4.140625 0 C 4.546875 -0.03125 5 -0.03125 5.421875 -0.03125 Z M 4.234375 -2.34375 L 2.125 -2.34375 L 3.171875 -5.265625 Z M 4.234375 -2.34375 "/>
</g>
<g id="glyph-0-2">
<path d="M 5.359375 -2.3125 L 5.109375 -2.3125 C 5 -1.40625 4.875 -0.28125 3.28125 -0.28125 L 2.5 -0.28125 C 2.078125 -0.28125 2.0625 -0.34375 2.0625 -0.640625 L 2.0625 -5.40625 C 2.0625 -5.734375 2.09375 -5.84375 2.90625 -5.84375 L 3.203125 -5.84375 L 3.203125 -6.109375 C 2.890625 -6.09375 2.0625 -6.09375 1.703125 -6.09375 C 1.296875 -6.09375 0.75 -6.09375 0.34375 -6.109375 L 0.34375 -5.84375 L 0.546875 -5.84375 C 1.234375 -5.84375 1.25 -5.734375 1.25 -5.40625 L 1.25 -0.703125 C 1.25 -0.375 1.234375 -0.28125 0.546875 -0.28125 L 0.34375 -0.28125 L 0.34375 0 L 5.109375 0 Z M 5.359375 -2.3125 "/>
</g>
<g id="glyph-0-3">
<path d="M 6.71875 -5.84375 L 6.71875 -6.109375 C 6.40625 -6.09375 6.140625 -6.09375 5.84375 -6.09375 L 4.828125 -6.109375 L 4.828125 -5.84375 C 5.265625 -5.828125 5.46875 -5.625 5.46875 -5.390625 C 5.46875 -5.3125 5.46875 -5.296875 5.421875 -5.203125 L 3.71875 -0.875 L 1.921875 -5.40625 C 1.875 -5.5 1.875 -5.5625 1.875 -5.5625 C 1.875 -5.84375 2.34375 -5.84375 2.59375 -5.84375 L 2.59375 -6.109375 C 2.1875 -6.09375 1.734375 -6.09375 1.328125 -6.09375 L 0.171875 -6.109375 L 0.171875 -5.84375 C 0.828125 -5.84375 0.9375 -5.796875 1.0625 -5.484375 L 3.21875 0 C 3.28125 0.140625 3.296875 0.203125 3.453125 0.203125 C 3.59375 0.203125 3.609375 0.140625 3.65625 0.015625 L 5.734375 -5.234375 C 5.921875 -5.71875 6.296875 -5.84375 6.71875 -5.84375 Z M 6.71875 -5.84375 "/>
</g>
<g id="glyph-0-4">
<path d="M 4.328125 -1.90625 C 4.328125 -3.078125 3.40625 -4.015625 2.296875 -4.015625 C 1.15625 -4.015625 0.265625 -3.046875 0.265625 -1.90625 C 0.265625 -0.78125 1.1875 0.09375 2.296875 0.09375 C 3.421875 0.09375 4.328125 -0.8125 4.328125 -1.90625 Z M 3.5625 -1.984375 C 3.5625 -1.65625 3.5625 -1.140625 3.34375 -0.75 C 3.09375 -0.328125 2.671875 -0.15625 2.296875 -0.15625 C 1.859375 -0.15625 1.484375 -0.375 1.265625 -0.71875 C 1.03125 -1.09375 1.03125 -1.578125 1.03125 -1.984375 C 1.03125 -2.3125 1.03125 -2.828125 1.25 -3.203125 C 1.515625 -3.65625 1.96875 -3.78125 2.296875 -3.78125 C 2.796875 -3.78125 3.171875 -3.5 3.34375 -3.203125 C 3.546875 -2.8125 3.5625 -2.359375 3.5625 -1.984375 Z M 3.5625 -1.984375 "/>
</g>
<g id="glyph-0-5">
<path d="M 3.34375 -3.40625 C 3.34375 -3.6875 3.078125 -3.953125 2.671875 -3.953125 C 2.125 -3.953125 1.75 -3.578125 1.546875 -3.03125 L 1.546875 -3.953125 L 0.265625 -3.859375 L 0.265625 -3.578125 C 0.875 -3.578125 0.953125 -3.515625 0.953125 -3.078125 L 0.953125 -0.6875 C 0.953125 -0.28125 0.859375 -0.28125 0.265625 -0.28125 L 0.265625 0 C 0.75 -0.015625 0.859375 -0.03125 1.3125 -0.03125 L 2.453125 0 L 2.453125 -0.28125 L 2.28125 -0.28125 C 1.625 -0.28125 1.59375 -0.375 1.59375 -0.703125 L 1.59375 -2.046875 C 1.59375 -2.421875 1.6875 -3.734375 2.71875 -3.734375 L 2.71875 -3.71875 C 2.6875 -3.71875 2.546875 -3.609375 2.546875 -3.390625 C 2.546875 -3.15625 2.734375 -3 2.953125 -3 C 3.140625 -3 3.34375 -3.140625 3.34375 -3.40625 Z M 3.34375 -3.40625 "/>
</g>
<g id="glyph-0-6">
<path d="M 3.0625 -1.109375 L 3.0625 -1.625 L 2.8125 -1.625 L 2.8125 -1.140625 C 2.8125 -0.46875 2.53125 -0.15625 2.21875 -0.15625 C 1.609375 -0.15625 1.609375 -0.9375 1.609375 -1.09375 L 1.609375 -3.578125 L 2.90625 -3.578125 L 2.90625 -3.859375 L 1.609375 -3.859375 L 1.609375 -5.5 L 1.359375 -5.5 C 1.359375 -4.75 1.03125 -3.828125 0.171875 -3.8125 L 0.171875 -3.578125 L 0.953125 -3.578125 L 0.953125 -1.109375 C 0.953125 -0.109375 1.671875 0.09375 2.15625 0.09375 C 2.75 0.09375 3.0625 -0.46875 3.0625 -1.109375 Z M 3.0625 -1.109375 "/>
</g>
<g id="glyph-0-7">
<path d="M 4.453125 -0.796875 L 4.453125 -1.296875 L 4.203125 -1.296875 L 4.203125 -0.8125 C 4.203125 -0.703125 4.203125 -0.265625 3.875 -0.265625 C 3.546875 -0.265625 3.546875 -0.6875 3.546875 -0.828125 L 3.546875 -2.40625 C 3.546875 -2.90625 3.546875 -3.21875 3.15625 -3.578125 C 2.8125 -3.875 2.390625 -4.015625 1.9375 -4.015625 C 1.1875 -4.015625 0.5625 -3.640625 0.5625 -3.0625 C 0.5625 -2.78125 0.75 -2.625 0.984375 -2.625 C 1.234375 -2.625 1.390625 -2.8125 1.390625 -3.046875 C 1.390625 -3.421875 1 -3.46875 1 -3.46875 C 1.234375 -3.703125 1.671875 -3.78125 1.921875 -3.78125 C 2.375 -3.78125 2.890625 -3.453125 2.890625 -2.65625 L 2.890625 -2.359375 C 2.40625 -2.34375 1.734375 -2.296875 1.140625 -2.015625 C 0.5 -1.703125 0.296875 -1.234375 0.296875 -0.875 C 0.296875 -0.140625 1.15625 0.09375 1.765625 0.09375 C 2.5 0.09375 2.84375 -0.390625 2.96875 -0.640625 C 3.015625 -0.265625 3.28125 0.046875 3.65625 0.046875 C 3.890625 0.046875 4.453125 -0.078125 4.453125 -0.796875 Z M 2.890625 -1.265625 C 2.890625 -0.390625 2.21875 -0.125 1.828125 -0.125 C 1.40625 -0.125 1.015625 -0.4375 1.015625 -0.875 C 1.015625 -1.46875 1.515625 -2.09375 2.890625 -2.15625 Z M 2.890625 -1.265625 "/>
</g>
<g id="glyph-0-8">
<path d="M 5.734375 -4.453125 C 5.734375 -5.34375 4.8125 -6.109375 3.578125 -6.109375 L 0.359375 -6.109375 L 0.359375 -5.84375 L 0.5625 -5.84375 C 1.25 -5.84375 1.265625 -5.734375 1.265625 -5.40625 L 1.265625 -0.703125 C 1.265625 -0.375 1.25 -0.28125 0.5625 -0.28125 L 0.359375 -0.28125 L 0.359375 0 C 0.765625 -0.03125 1.265625 -0.03125 1.671875 -0.03125 C 2.09375 -0.03125 2.59375 -0.03125 2.984375 0 L 2.984375 -0.28125 L 2.78125 -0.28125 C 2.09375 -0.28125 2.078125 -0.375 2.078125 -0.703125 L 2.078125 -2.8125 L 3.578125 -2.8125 C 4.828125 -2.8125 5.734375 -3.59375 5.734375 -4.453125 Z M 4.828125 -4.453125 C 4.828125 -4.046875 4.828125 -3.0625 3.34375 -3.0625 L 2.046875 -3.0625 L 2.046875 -5.46875 C 2.046875 -5.78125 2.0625 -5.84375 2.484375 -5.84375 L 3.34375 -5.84375 C 4.828125 -5.84375 4.828125 -4.859375 4.828125 -4.453125 Z M 4.828125 -4.453125 "/>
</g>
<g id="glyph-0-9">
<path d="M 4.890625 0 L 4.890625 -0.28125 C 4.28125 -0.28125 4.203125 -0.34375 4.203125 -0.78125 L 4.203125 -3.953125 L 2.859375 -3.859375 L 2.859375 -3.578125 C 3.46875 -3.578125 3.546875 -3.515625 3.546875 -3.078125 L 3.546875 -1.5 C 3.546875 -0.703125 3.09375 -0.125 2.453125 -0.125 C 1.703125 -0.125 1.671875 -0.515625 1.671875 -1 L 1.671875 -3.953125 L 0.3125 -3.859375 L 0.3125 -3.578125 C 1 -3.578125 1 -3.546875 1 -2.75 L 1 -1.421875 C 1 -0.828125 1 -0.453125 1.421875 -0.140625 C 1.671875 0.03125 2.046875 0.09375 2.40625 0.09375 C 2.859375 0.09375 3.296875 -0.109375 3.5625 -0.640625 L 3.578125 -0.640625 L 3.578125 0.09375 Z M 4.890625 0 "/>
</g>
<g id="glyph-0-10">
<path d="M 2.34375 0 L 2.34375 -0.28125 C 1.75 -0.28125 1.640625 -0.28125 1.640625 -0.6875 L 1.640625 -6.21875 L 0.328125 -6.109375 L 0.328125 -5.84375 C 0.9375 -5.84375 1.015625 -5.78125 1.015625 -5.34375 L 1.015625 -0.6875 C 1.015625 -0.28125 0.90625 -0.28125 0.328125 -0.28125 L 0.328125 0 C 0.75 -0.015625 0.90625 -0.03125 1.328125 -0.03125 C 1.75 -0.03125 1.890625 -0.015625 2.34375 0 Z M 2.34375 0 "/>
</g>
<g id="glyph-0-11">
<path d="M 7.453125 0 L 7.453125 -0.28125 C 7 -0.28125 6.78125 -0.28125 6.765625 -0.5625 L 6.765625 -2.28125 C 6.765625 -3.046875 6.765625 -3.296875 6.46875 -3.640625 C 6.28125 -3.84375 5.921875 -3.953125 5.515625 -3.953125 C 4.875 -3.953125 4.4375 -3.578125 4.1875 -3.109375 C 4.078125 -3.640625 3.71875 -3.953125 2.96875 -3.953125 C 2.25 -3.953125 1.8125 -3.484375 1.625 -3.078125 L 1.609375 -3.078125 L 1.609375 -3.953125 L 0.3125 -3.859375 L 0.3125 -3.578125 C 0.921875 -3.578125 1 -3.515625 1 -3.078125 L 1 -0.6875 C 1 -0.28125 0.90625 -0.28125 0.3125 -0.28125 L 0.3125 0 C 0.734375 -0.015625 0.90625 -0.03125 1.328125 -0.03125 C 1.765625 -0.03125 1.875 -0.015625 2.359375 0 L 2.359375 -0.28125 C 1.765625 -0.28125 1.671875 -0.28125 1.671875 -0.6875 L 1.671875 -2.3125 C 1.671875 -3.28125 2.359375 -3.734375 2.90625 -3.734375 C 3.390625 -3.734375 3.546875 -3.390625 3.546875 -2.75 L 3.546875 -0.6875 C 3.546875 -0.28125 3.453125 -0.28125 2.859375 -0.28125 L 2.859375 0 C 3.28125 -0.015625 3.453125 -0.03125 3.890625 -0.03125 C 4.3125 -0.03125 4.4375 -0.015625 4.90625 0 L 4.90625 -0.28125 C 4.3125 -0.28125 4.21875 -0.28125 4.21875 -0.6875 L 4.21875 -2.3125 C 4.21875 -3.28125 4.921875 -3.734375 5.453125 -3.734375 C 5.9375 -3.734375 6.109375 -3.390625 6.109375 -2.75 L 6.109375 -0.6875 C 6.109375 -0.28125 6 -0.28125 5.421875 -0.28125 L 5.421875 0 C 5.84375 -0.015625 6 -0.03125 6.4375 -0.03125 C 6.859375 -0.03125 6.984375 -0.015625 7.453125 0 Z M 7.453125 0 "/>
</g>
<g id="glyph-0-12">
<path d="M 4.890625 0 L 4.890625 -0.28125 C 4.4375 -0.28125 4.21875 -0.28125 4.203125 -0.5625 L 4.203125 -2.28125 C 4.203125 -3.015625 4.203125 -3.28125 3.953125 -3.59375 C 3.75 -3.84375 3.40625 -3.953125 2.96875 -3.953125 C 2.125 -3.953125 1.75 -3.34375 1.625 -3.09375 L 1.609375 -3.09375 L 1.609375 -3.953125 L 0.3125 -3.859375 L 0.3125 -3.578125 C 0.921875 -3.578125 1 -3.515625 1 -3.078125 L 1 -0.6875 C 1 -0.28125 0.90625 -0.28125 0.3125 -0.28125 L 0.3125 0 C 0.734375 -0.015625 0.90625 -0.03125 1.328125 -0.03125 C 1.765625 -0.03125 1.875 -0.015625 2.359375 0 L 2.359375 -0.28125 C 1.765625 -0.28125 1.671875 -0.28125 1.671875 -0.6875 L 1.671875 -2.3125 C 1.671875 -3.265625 2.34375 -3.734375 2.90625 -3.734375 C 3.421875 -3.734375 3.546875 -3.296875 3.546875 -2.75 L 3.546875 -0.6875 C 3.546875 -0.28125 3.453125 -0.28125 2.859375 -0.28125 L 2.859375 0 C 3.28125 -0.015625 3.453125 -0.03125 3.875 -0.03125 C 4.3125 -0.03125 4.421875 -0.015625 4.890625 0 Z M 4.890625 0 "/>
</g>
<g id="glyph-0-13">
<path d="M 4.65625 -3.578125 L 4.65625 -3.859375 C 4.375 -3.828125 4.09375 -3.828125 3.96875 -3.828125 C 3.71875 -3.828125 3.453125 -3.84375 3.203125 -3.859375 L 3.203125 -3.578125 C 3.609375 -3.5625 3.609375 -3.234375 3.609375 -3.203125 C 3.609375 -3.109375 3.578125 -3.015625 3.53125 -2.953125 L 2.625 -0.8125 L 1.625 -3.15625 C 1.578125 -3.28125 1.578125 -3.34375 1.578125 -3.34375 C 1.578125 -3.578125 1.875 -3.578125 2.0625 -3.578125 L 2.0625 -3.859375 L 1.078125 -3.828125 C 1.046875 -3.828125 0.53125 -3.828125 0.1875 -3.859375 L 0.1875 -3.578125 C 0.59375 -3.578125 0.765625 -3.5625 0.875 -3.328125 L 2.28125 0 L 2.0625 0.53125 C 1.859375 1 1.609375 1.609375 1.015625 1.609375 C 0.796875 1.609375 0.640625 1.5 0.625 1.484375 C 0.6875 1.46875 0.9375 1.390625 0.9375 1.09375 C 0.9375 0.859375 0.765625 0.71875 0.5625 0.71875 C 0.34375 0.71875 0.171875 0.859375 0.171875 1.09375 C 0.171875 1.5 0.5625 1.828125 1.015625 1.828125 C 1.609375 1.828125 1.984375 1.3125 2.203125 0.828125 L 3.828125 -2.96875 C 3.921875 -3.203125 4.078125 -3.5625 4.65625 -3.578125 Z M 4.65625 -3.578125 "/>
</g>
<g id="glyph-0-14">
<path d="M 3.828125 -1.0625 C 3.828125 -1.125 3.78125 -1.1875 3.703125 -1.1875 C 3.609375 -1.1875 3.578125 -1.125 3.578125 -1.078125 C 3.265625 -0.171875 2.46875 -0.15625 2.34375 -0.15625 C 1.90625 -0.15625 1.546875 -0.390625 1.328125 -0.703125 C 1.03125 -1.140625 1.03125 -1.671875 1.03125 -2.046875 L 3.578125 -2.046875 C 3.78125 -2.046875 3.828125 -2.046875 3.828125 -2.234375 C 3.828125 -3.15625 3.328125 -4.015625 2.171875 -4.015625 C 1.09375 -4.015625 0.265625 -3.078125 0.265625 -1.96875 C 0.265625 -0.796875 1.203125 0.09375 2.296875 0.09375 C 3.390625 0.09375 3.828125 -0.859375 3.828125 -1.0625 Z M 3.21875 -2.265625 L 1.03125 -2.265625 C 1.125 -3.640625 1.921875 -3.78125 2.171875 -3.78125 C 2.671875 -3.78125 3.203125 -3.40625 3.21875 -2.265625 Z M 3.21875 -2.265625 "/>
</g>
<g id="glyph-0-15">
<path d="M 3.828125 -1.0625 C 3.828125 -1.171875 3.71875 -1.171875 3.703125 -1.171875 C 3.59375 -1.171875 3.59375 -1.15625 3.546875 -1 C 3.34375 -0.390625 2.84375 -0.15625 2.375 -0.15625 C 1.8125 -0.15625 1.078125 -0.625 1.078125 -1.9375 C 1.078125 -3.34375 1.796875 -3.765625 2.328125 -3.765625 C 2.4375 -3.765625 2.921875 -3.75 3.265625 -3.515625 C 3.078125 -3.484375 2.890625 -3.359375 2.890625 -3.09375 C 2.890625 -2.859375 3.078125 -2.6875 3.296875 -2.6875 C 3.53125 -2.6875 3.71875 -2.84375 3.71875 -3.109375 C 3.71875 -3.671875 3.09375 -4.015625 2.3125 -4.015625 C 1.15625 -4.015625 0.296875 -3.046875 0.296875 -1.9375 C 0.296875 -0.78125 1.234375 0.09375 2.296875 0.09375 C 3.53125 0.09375 3.828125 -0.984375 3.828125 -1.0625 Z M 3.828125 -1.0625 "/>
</g>
<g id="glyph-0-16">
<path d="M 4.671875 -3.578125 L 4.671875 -3.859375 C 4.390625 -3.828125 3.96875 -3.828125 3.96875 -3.828125 C 3.71875 -3.828125 3.453125 -3.84375 3.203125 -3.859375 L 3.203125 -3.578125 C 3.453125 -3.5625 3.609375 -3.421875 3.609375 -3.203125 C 3.609375 -3.109375 3.59375 -3.09375 3.5625 -2.984375 L 2.625 -0.734375 L 1.609375 -3.171875 C 1.578125 -3.234375 1.5625 -3.28125 1.5625 -3.34375 C 1.5625 -3.578125 1.890625 -3.578125 2.0625 -3.578125 L 2.0625 -3.859375 C 1.671875 -3.84375 1.46875 -3.828125 1.078125 -3.828125 C 0.765625 -3.828125 0.5 -3.828125 0.171875 -3.859375 L 0.171875 -3.578125 C 0.59375 -3.578125 0.765625 -3.578125 0.90625 -3.25 L 2.21875 -0.078125 C 2.265625 0.078125 2.34375 0.09375 2.421875 0.09375 C 2.5 0.09375 2.5625 0.078125 2.625 -0.078125 L 3.84375 -3.015625 C 4.03125 -3.46875 4.34375 -3.578125 4.671875 -3.578125 Z M 4.671875 -3.578125 "/>
</g>
<g id="glyph-0-17">
<path d="M 4.59375 -1.65625 C 4.59375 -2.171875 4.40625 -2.5625 4.1875 -2.828125 C 3.8125 -3.328125 3.40625 -3.421875 2.8125 -3.546875 L 2.03125 -3.75 C 1.3125 -3.921875 1.078125 -4.5 1.078125 -4.890625 C 1.078125 -5.484375 1.5625 -6.0625 2.3125 -6.0625 C 3.46875 -6.0625 3.9375 -5.203125 4.0625 -4.296875 C 4.09375 -4.125 4.09375 -4.078125 4.203125 -4.078125 C 4.328125 -4.078125 4.328125 -4.140625 4.328125 -4.328125 L 4.328125 -6.0625 C 4.328125 -6.234375 4.328125 -6.3125 4.21875 -6.3125 C 4.15625 -6.3125 4.15625 -6.296875 4.09375 -6.203125 C 3.96875 -6.03125 4.0625 -6.15625 3.765625 -5.6875 C 3.609375 -5.859375 3.15625 -6.3125 2.3125 -6.3125 C 1.265625 -6.3125 0.515625 -5.5 0.515625 -4.578125 C 0.515625 -3.890625 0.9375 -3.453125 0.96875 -3.40625 C 1.375 -3.015625 1.546875 -2.96875 2.609375 -2.71875 C 3.328125 -2.546875 3.40625 -2.53125 3.703125 -2.234375 C 3.703125 -2.234375 4.015625 -1.890625 4.015625 -1.359375 C 4.015625 -0.75 3.578125 -0.078125 2.765625 -0.078125 C 2.078125 -0.078125 0.828125 -0.359375 0.765625 -1.84375 C 0.75 -1.984375 0.75 -2.03125 0.640625 -2.03125 C 0.515625 -2.03125 0.515625 -1.953125 0.515625 -1.78125 L 0.515625 -0.046875 C 0.515625 0.125 0.515625 0.203125 0.625 0.203125 C 0.6875 0.203125 0.6875 0.1875 0.75 0.078125 C 0.875 -0.078125 0.78125 0.03125 1.078125 -0.4375 C 1.625 0.109375 2.34375 0.203125 2.78125 0.203125 C 3.875 0.203125 4.59375 -0.703125 4.59375 -1.65625 Z M 4.59375 -1.65625 "/>
</g>
<g id="glyph-0-18">
<path d="M 4.796875 -1.9375 C 4.796875 -3.0625 3.921875 -3.953125 2.859375 -3.953125 C 2.375 -3.953125 1.9375 -3.765625 1.59375 -3.390625 L 1.59375 -3.953125 L 0.265625 -3.859375 L 0.265625 -3.578125 C 0.90625 -3.578125 0.953125 -3.53125 0.953125 -3.140625 L 0.953125 1.046875 C 0.953125 1.453125 0.859375 1.453125 0.265625 1.453125 L 0.265625 1.734375 C 0.6875 1.71875 0.859375 1.703125 1.296875 1.703125 C 1.71875 1.703125 1.828125 1.71875 2.3125 1.734375 L 2.3125 1.453125 C 1.71875 1.453125 1.625 1.453125 1.625 1.046875 L 1.625 -0.4375 C 1.859375 -0.203125 2.15625 0.09375 2.75 0.09375 C 3.8125 0.09375 4.796875 -0.765625 4.796875 -1.9375 Z M 4.03125 -1.9375 C 4.03125 -0.90625 3.421875 -0.125 2.6875 -0.125 C 2.296875 -0.125 1.953125 -0.359375 1.734375 -0.671875 C 1.625 -0.84375 1.625 -0.875 1.625 -1.03125 L 1.625 -3.015625 C 1.921875 -3.53125 2.421875 -3.703125 2.796875 -3.703125 C 3.484375 -3.703125 4.03125 -2.90625 4.03125 -1.9375 Z M 4.03125 -1.9375 "/>
</g>
<g id="glyph-1-0">
<path d="M 6.703125 -2.390625 C 6.703125 -3.515625 5.96875 -4.578125 4.671875 -4.875 L 3.03125 -5.25 C 1.84375 -5.515625 1.8125 -6.375 1.8125 -6.546875 C 1.8125 -7.15625 2.203125 -7.859375 3.359375 -7.859375 C 4.53125 -7.859375 5.5625 -7.296875 5.8125 -5.734375 C 5.84375 -5.484375 5.84375 -5.46875 6.078125 -5.46875 C 6.328125 -5.46875 6.328125 -5.5 6.328125 -5.78125 L 6.328125 -8.015625 C 6.328125 -8.25 6.328125 -8.328125 6.140625 -8.328125 C 6.0625 -8.328125 6.03125 -8.328125 5.921875 -8.203125 L 5.40625 -7.609375 C 5.109375 -7.859375 4.515625 -8.328125 3.359375 -8.328125 C 1.640625 -8.328125 0.734375 -7.265625 0.734375 -5.953125 C 0.734375 -5.15625 1.171875 -4.59375 1.34375 -4.421875 C 1.953125 -3.8125 2.296875 -3.734375 3.53125 -3.46875 C 4.734375 -3.203125 4.875 -3.171875 5.140625 -2.921875 C 5.28125 -2.765625 5.640625 -2.4375 5.640625 -1.828125 C 5.640625 -1.3125 5.390625 -0.375 4.046875 -0.375 C 3 -0.375 1.34375 -0.734375 1.234375 -2.46875 C 1.234375 -2.6875 1.234375 -2.71875 0.984375 -2.71875 C 0.734375 -2.71875 0.734375 -2.6875 0.734375 -2.40625 L 0.734375 -0.171875 C 0.734375 0.0625 0.734375 0.140625 0.921875 0.140625 C 1 0.140625 1.015625 0.125 1.140625 0.03125 C 1.265625 -0.109375 1.375 -0.265625 1.671875 -0.5625 C 2.359375 -0.015625 3.34375 0.140625 4.0625 0.140625 C 5.921875 0.140625 6.703125 -1.125 6.703125 -2.390625 Z M 6.703125 -2.390625 "/>
</g>
<g id="glyph-1-1">
<path d="M 3.328125 0 L 3.328125 -0.515625 L 2.59375 -0.515625 L 2.59375 -5.375 L 0.5625 -5.28125 L 0.5625 -4.765625 C 1.265625 -4.765625 1.34375 -4.765625 1.34375 -4.296875 L 1.34375 -0.515625 L 0.53125 -0.515625 L 0.53125 0 C 0.796875 -0.03125 1.625 -0.03125 1.953125 -0.03125 C 2.28125 -0.03125 3.046875 -0.03125 3.328125 0 Z M 2.734375 -7.265625 C 2.734375 -7.75 2.328125 -8.125 1.875 -8.125 C 1.390625 -8.125 1 -7.71875 1 -7.265625 C 1 -6.765625 1.40625 -6.40625 1.859375 -6.40625 C 2.359375 -6.40625 2.734375 -6.796875 2.734375 -7.265625 Z M 2.734375 -7.265625 "/>
</g>
<g id="glyph-1-2">
<path d="M 10.90625 0 L 10.90625 -0.515625 L 10.078125 -0.515625 L 10.078125 -3.65625 C 10.078125 -4.75 9.609375 -5.375 8.265625 -5.375 C 7.0625 -5.375 6.5 -4.5625 6.3125 -4.171875 C 6.125 -5.1875 5.3125 -5.375 4.546875 -5.375 C 3.40625 -5.375 2.78125 -4.625 2.53125 -4.0625 L 2.515625 -4.0625 L 2.515625 -5.375 L 0.5 -5.28125 L 0.5 -4.765625 C 1.234375 -4.765625 1.328125 -4.765625 1.328125 -4.296875 L 1.328125 -0.515625 L 0.5 -0.515625 L 0.5 0 C 0.78125 -0.03125 1.640625 -0.03125 1.96875 -0.03125 C 2.296875 -0.03125 3.171875 -0.03125 3.453125 0 L 3.453125 -0.515625 L 2.625 -0.515625 L 2.625 -3.0625 C 2.625 -4.359375 3.59375 -4.984375 4.34375 -4.984375 C 4.78125 -4.984375 5.046875 -4.71875 5.046875 -3.78125 L 5.046875 -0.515625 L 4.21875 -0.515625 L 4.21875 0 C 4.5 -0.03125 5.359375 -0.03125 5.6875 -0.03125 C 6.03125 -0.03125 6.90625 -0.03125 7.171875 0 L 7.171875 -0.515625 L 6.34375 -0.515625 L 6.34375 -3.0625 C 6.34375 -4.359375 7.3125 -4.984375 8.0625 -4.984375 C 8.515625 -4.984375 8.78125 -4.71875 8.78125 -3.78125 L 8.78125 -0.515625 L 7.953125 -0.515625 L 7.953125 0 C 8.21875 -0.03125 9.078125 -0.03125 9.421875 -0.03125 C 9.75 -0.03125 10.625 -0.03125 10.90625 0 Z M 10.90625 0 "/>
</g>
<g id="glyph-1-3">
<path d="M 7 -2.65625 C 7 -4.3125 5.890625 -5.375 4.28125 -5.375 C 3.5625 -5.375 2.953125 -5.140625 2.484375 -4.75 L 2.484375 -5.375 L 0.421875 -5.28125 L 0.421875 -4.765625 C 1.15625 -4.765625 1.234375 -4.765625 1.234375 -4.296875 L 1.234375 1.796875 L 0.421875 1.796875 L 0.421875 2.3125 C 0.6875 2.296875 1.546875 2.296875 1.890625 2.296875 C 2.21875 2.296875 3.09375 2.296875 3.359375 2.3125 L 3.359375 1.796875 L 2.546875 1.796875 L 2.546875 -0.484375 C 2.84375 -0.234375 3.359375 0.078125 4.078125 0.078125 C 5.71875 0.078125 7 -0.921875 7 -2.65625 Z M 5.5625 -2.65625 C 5.5625 -0.9375 4.703125 -0.328125 3.9375 -0.328125 C 3.421875 -0.328125 2.90625 -0.578125 2.546875 -1.140625 L 2.546875 -4.171875 C 2.984375 -4.75 3.609375 -4.9375 4.078125 -4.9375 C 4.859375 -4.9375 5.5625 -4.234375 5.5625 -2.65625 Z M 5.5625 -2.65625 "/>
</g>
<g id="glyph-1-4">
<path d="M 3.421875 0 L 3.421875 -0.515625 L 2.59375 -0.515625 L 2.59375 -8.28125 L 0.53125 -8.1875 L 0.53125 -7.671875 C 1.265625 -7.671875 1.34375 -7.671875 1.34375 -7.203125 L 1.34375 -0.515625 L 0.53125 -0.515625 L 0.53125 0 C 0.796875 -0.03125 1.640625 -0.03125 1.96875 -0.03125 C 2.296875 -0.03125 3.140625 -0.03125 3.421875 0 Z M 3.421875 0 "/>
</g>
<g id="glyph-1-5">
<path d="M 7.03125 0 L 7.03125 -0.515625 L 6.203125 -0.515625 L 6.203125 -5.40625 L 4.140625 -5.34375 L 4.140625 -5.296875 L 2.421875 -5.296875 L 2.421875 -6.5 C 2.421875 -7.84375 3.828125 -7.96875 4.3125 -7.96875 C 4.4375 -7.96875 4.875 -7.96875 5.234375 -7.71875 C 4.859375 -7.609375 4.703125 -7.3125 4.703125 -7 C 4.703125 -6.5625 5.03125 -6.28125 5.4375 -6.28125 C 5.828125 -6.28125 6.15625 -6.546875 6.15625 -7 C 6.15625 -7.65625 5.625 -8.359375 4.421875 -8.359375 C 3.0625 -8.359375 1.234375 -7.953125 1.234375 -6.5 L 1.234375 -5.296875 L 0.359375 -5.296875 L 0.359375 -4.78125 L 1.234375 -4.78125 L 1.234375 -0.515625 L 0.421875 -0.515625 L 0.421875 0 C 0.6875 -0.03125 1.546875 -0.03125 1.859375 -0.03125 C 2.1875 -0.03125 3.03125 -0.03125 3.3125 0 L 3.3125 -0.515625 L 2.484375 -0.515625 L 2.484375 -4.78125 L 4.59375 -4.78125 C 4.890625 -4.78125 4.96875 -4.78125 4.96875 -4.359375 L 4.96875 -0.515625 L 4.140625 -0.515625 L 4.140625 0 C 4.421875 -0.03125 5.265625 -0.03125 5.59375 -0.03125 C 5.90625 -0.03125 6.75 -0.03125 7.03125 0 Z M 7.03125 0 "/>
</g>
<g id="glyph-1-6">
<path d="M 5.734375 -1.390625 C 5.734375 -1.578125 5.5625 -1.578125 5.484375 -1.578125 C 5.296875 -1.578125 5.28125 -1.546875 5.21875 -1.390625 C 4.90625 -0.609375 4.125 -0.359375 3.546875 -0.359375 C 1.8125 -0.359375 1.796875 -1.96875 1.796875 -2.640625 L 5.390625 -2.640625 C 5.671875 -2.640625 5.734375 -2.640625 5.734375 -2.9375 C 5.734375 -3.296875 5.65625 -4.1875 5.109375 -4.75 C 4.609375 -5.25 3.9375 -5.40625 3.25 -5.40625 C 1.390625 -5.40625 0.375 -4.1875 0.375 -2.6875 C 0.375 -1.015625 1.59375 0.078125 3.40625 0.078125 C 5.203125 0.078125 5.734375 -1.1875 5.734375 -1.390625 Z M 4.640625 -2.984375 L 1.796875 -2.984375 C 1.828125 -3.46875 1.84375 -3.9375 2.09375 -4.375 C 2.3125 -4.75 2.734375 -5.015625 3.25 -5.015625 C 4.53125 -5.015625 4.625 -3.578125 4.640625 -2.984375 Z M 4.640625 -2.984375 "/>
</g>
<g id="glyph-1-7">
<path d="M 7.03125 0 L 7.03125 -0.515625 C 6.296875 -0.515625 6.203125 -0.515625 6.203125 -0.984375 L 6.203125 -8.28125 L 4.140625 -8.1875 L 4.140625 -7.671875 C 4.875 -7.671875 4.96875 -7.671875 4.96875 -7.203125 L 4.96875 -4.796875 C 4.703125 -5.03125 4.171875 -5.375 3.359375 -5.375 C 1.65625 -5.375 0.453125 -4.328125 0.453125 -2.65625 C 0.453125 -0.9375 1.640625 0.078125 3.21875 0.078125 C 3.875 0.078125 4.4375 -0.15625 4.90625 -0.546875 L 4.90625 0.078125 Z M 4.90625 -1.203125 C 4.40625 -0.484375 3.796875 -0.328125 3.359375 -0.328125 C 1.890625 -0.328125 1.890625 -1.84375 1.890625 -2.625 C 1.890625 -3.1875 1.890625 -3.78125 2.15625 -4.234375 C 2.515625 -4.90625 3.21875 -4.984375 3.5 -4.984375 C 3.984375 -4.984375 4.515625 -4.765625 4.90625 -4.234375 Z M 4.90625 -1.203125 "/>
</g>
<g id="glyph-1-8">
<path d="M 10.046875 0 L 10.046875 -0.515625 L 8.78125 -0.515625 L 8.78125 -7.671875 L 10.046875 -7.671875 L 10.046875 -8.1875 C 9.6875 -8.171875 8.421875 -8.171875 7.984375 -8.171875 C 7.5625 -8.171875 6.28125 -8.171875 5.9375 -8.1875 L 5.9375 -7.671875 L 7.203125 -7.671875 L 7.203125 -4.515625 L 3.296875 -4.515625 L 3.296875 -7.671875 L 4.5625 -7.671875 L 4.5625 -8.1875 C 4.21875 -8.171875 2.9375 -8.171875 2.5 -8.171875 C 2.078125 -8.171875 0.796875 -8.171875 0.453125 -8.1875 L 0.453125 -7.671875 L 1.71875 -7.671875 L 1.71875 -0.515625 L 0.453125 -0.515625 L 0.453125 0 C 0.796875 -0.03125 2.078125 -0.03125 2.5 -0.03125 C 2.9375 -0.03125 4.21875 -0.03125 4.5625 0 L 4.5625 -0.515625 L 3.296875 -0.515625 L 3.296875 -4 L 7.203125 -4 L 7.203125 -0.515625 L 5.9375 -0.515625 L 5.9375 0 C 6.28125 -0.03125 7.5625 -0.03125 7.984375 -0.03125 C 8.421875 -0.03125 9.6875 -0.03125 10.046875 0 Z M 10.046875 0 "/>
</g>
<g id="glyph-1-9">
<path d="M 6.453125 -0.265625 C 6.453125 -0.515625 6.34375 -0.515625 6.1875 -0.515625 C 5.4375 -0.53125 5.4375 -0.71875 5.4375 -0.984375 L 5.4375 -3.5625 C 5.4375 -4.671875 4.5625 -5.40625 2.875 -5.40625 C 2.203125 -5.40625 0.796875 -5.34375 0.796875 -4.34375 C 0.796875 -3.84375 1.1875 -3.625 1.5 -3.625 C 1.859375 -3.625 2.203125 -3.875 2.203125 -4.328125 C 2.203125 -4.5625 2.125 -4.78125 1.921875 -4.90625 C 2.3125 -5.015625 2.609375 -5.015625 2.828125 -5.015625 C 3.640625 -5.015625 4.125 -4.5625 4.125 -3.578125 L 4.125 -3.109375 C 2.25 -3.109375 0.34375 -2.578125 0.34375 -1.25 C 0.34375 -0.171875 1.734375 0.078125 2.546875 0.078125 C 3.46875 0.078125 4.0625 -0.4375 4.296875 -0.953125 C 4.296875 -0.515625 4.296875 0 5.5 0 L 6.109375 0 C 6.359375 0 6.453125 0 6.453125 -0.265625 Z M 4.125 -1.65625 C 4.125 -0.53125 3.125 -0.328125 2.75 -0.328125 C 2.15625 -0.328125 1.671875 -0.71875 1.671875 -1.265625 C 1.671875 -2.359375 2.953125 -2.71875 4.125 -2.78125 Z M 4.125 -1.65625 "/>
</g>
<g id="glyph-1-10">
<path d="M 5.09375 -4.421875 C 5.09375 -5.03125 4.484375 -5.375 3.90625 -5.375 C 2.953125 -5.375 2.546875 -4.546875 2.390625 -4.046875 L 2.375 -4.046875 L 2.375 -5.375 L 0.421875 -5.28125 L 0.421875 -4.765625 C 1.15625 -4.765625 1.234375 -4.765625 1.234375 -4.296875 L 1.234375 -0.515625 L 0.421875 -0.515625 L 0.421875 0 C 0.6875 -0.03125 1.59375 -0.03125 1.921875 -0.03125 C 2.265625 -0.03125 3.234375 -0.03125 3.515625 0 L 3.515625 -0.515625 L 2.484375 -0.515625 L 2.484375 -2.6875 C 2.484375 -3.078125 2.5625 -4.984375 3.96875 -4.984375 C 3.796875 -4.84375 3.71875 -4.640625 3.71875 -4.421875 C 3.71875 -3.9375 4.109375 -3.734375 4.40625 -3.734375 C 4.703125 -3.734375 5.09375 -3.9375 5.09375 -4.421875 Z M 5.09375 -4.421875 "/>
</g>
<g id="glyph-1-11">
<path d="M 4.46875 -1.484375 L 4.46875 -2.109375 L 3.96875 -2.109375 L 3.96875 -1.5 C 3.96875 -0.703125 3.609375 -0.359375 3.234375 -0.359375 C 2.515625 -0.359375 2.515625 -1.15625 2.515625 -1.4375 L 2.515625 -4.78125 L 4.234375 -4.78125 L 4.234375 -5.296875 L 2.515625 -5.296875 L 2.515625 -7.578125 L 2.015625 -7.578125 C 2 -6.40625 1.4375 -5.21875 0.25 -5.1875 L 0.25 -4.78125 L 1.21875 -4.78125 L 1.21875 -1.46875 C 1.21875 -0.203125 2.203125 0.078125 3.0625 0.078125 C 3.9375 0.078125 4.46875 -0.59375 4.46875 -1.484375 Z M 4.46875 -1.484375 "/>
</g>
<g id="glyph-1-12">
<path d="M 9.671875 0 L 9.671875 -0.515625 L 8.53125 -0.515625 L 5.46875 -8.078125 C 5.390625 -8.296875 5.359375 -8.359375 5.078125 -8.359375 C 4.78125 -8.359375 4.75 -8.296875 4.671875 -8.078125 L 1.703125 -0.796875 C 1.625 -0.609375 1.625 -0.578125 1.296875 -0.546875 C 0.984375 -0.515625 0.9375 -0.515625 0.6875 -0.515625 L 0.46875 -0.515625 L 0.46875 0 C 0.78125 -0.03125 1.5 -0.03125 1.84375 -0.03125 C 2.15625 -0.03125 3.03125 -0.03125 3.3125 0 L 3.3125 -0.515625 C 3.046875 -0.515625 2.59375 -0.515625 2.25 -0.640625 C 2.296875 -0.75 2.296875 -0.78125 2.3125 -0.828125 L 2.953125 -2.375 L 6.140625 -2.375 L 6.90625 -0.515625 L 5.78125 -0.515625 L 5.78125 0 C 6.15625 -0.03125 7.3125 -0.03125 7.765625 -0.03125 C 8.15625 -0.03125 9.375 -0.03125 9.671875 0 Z M 5.9375 -2.890625 L 3.15625 -2.890625 L 4.546875 -6.328125 Z M 5.9375 -2.890625 "/>
</g>
<g id="glyph-1-13">
<path d="M 7.15625 0 L 7.15625 -0.515625 L 6.34375 -0.515625 L 6.34375 -3.65625 C 6.34375 -4.78125 5.84375 -5.375 4.53125 -5.375 C 3.671875 -5.375 2.9375 -4.953125 2.53125 -4.0625 L 2.515625 -4.0625 L 2.515625 -5.375 L 0.5 -5.28125 L 0.5 -4.765625 C 1.234375 -4.765625 1.328125 -4.765625 1.328125 -4.296875 L 1.328125 -0.515625 L 0.5 -0.515625 L 0.5 0 C 0.78125 -0.03125 1.640625 -0.03125 1.96875 -0.03125 C 2.296875 -0.03125 3.171875 -0.03125 3.453125 0 L 3.453125 -0.515625 L 2.625 -0.515625 L 2.625 -3.0625 C 2.625 -4.34375 3.578125 -4.984375 4.34375 -4.984375 C 4.78125 -4.984375 5.03125 -4.6875 5.03125 -3.78125 L 5.03125 -0.515625 L 4.21875 -0.515625 L 4.21875 0 C 4.484375 -0.03125 5.34375 -0.03125 5.6875 -0.03125 C 6.015625 -0.03125 6.890625 -0.03125 7.15625 0 Z M 7.15625 0 "/>
</g>
<g id="glyph-1-14">
<path d="M 6.328125 -2.609375 C 6.328125 -4.21875 5.234375 -5.40625 3.359375 -5.40625 C 1.40625 -5.40625 0.375 -4.171875 0.375 -2.609375 C 0.375 -1.046875 1.46875 0.078125 3.34375 0.078125 C 5.28125 0.078125 6.328125 -1.109375 6.328125 -2.609375 Z M 4.890625 -2.734375 C 4.890625 -1.75 4.890625 -0.359375 3.359375 -0.359375 C 1.796875 -0.359375 1.796875 -1.75 1.796875 -2.734375 C 1.796875 -3.296875 1.796875 -3.890625 2.03125 -4.328125 C 2.296875 -4.796875 2.828125 -5.015625 3.34375 -5.015625 C 4.015625 -5.015625 4.453125 -4.6875 4.65625 -4.359375 C 4.890625 -3.921875 4.890625 -3.3125 4.890625 -2.734375 Z M 4.890625 -2.734375 "/>
</g>
<g id="glyph-1-15">
<path d="M 6.796875 -4.78125 L 6.796875 -5.296875 C 6.390625 -5.28125 6.34375 -5.28125 5.84375 -5.28125 L 4.828125 -5.296875 L 4.828125 -4.78125 C 4.828125 -4.78125 5.390625 -4.78125 5.390625 -4.625 C 5.390625 -4.59375 5.359375 -4.53125 5.34375 -4.484375 L 3.953125 -1.484375 L 2.421875 -4.78125 L 3.078125 -4.78125 L 3.078125 -5.296875 C 2.796875 -5.28125 1.984375 -5.28125 1.640625 -5.28125 C 1.296875 -5.28125 0.59375 -5.28125 0.28125 -5.296875 L 0.28125 -4.78125 L 1.046875 -4.78125 L 3.265625 0 C 3.203125 0.140625 3.03125 0.484375 2.96875 0.625 C 2.71875 1.171875 2.34375 2 1.5 2 C 1.453125 2 1.3125 2 1.1875 1.921875 C 1.203125 1.90625 1.5625 1.765625 1.5625 1.3125 C 1.5625 0.921875 1.28125 0.671875 0.921875 0.671875 C 0.546875 0.671875 0.265625 0.921875 0.265625 1.328125 C 0.265625 1.890625 0.78125 2.390625 1.5 2.390625 C 2.484375 2.390625 3.125 1.5 3.359375 0.984375 L 5.90625 -4.53125 C 5.984375 -4.6875 6.03125 -4.78125 6.796875 -4.78125 Z M 6.796875 -4.78125 "/>
</g>
</g>
<clipPath id="clip-0">
<path clip-rule="nonzero" d="M 91 27 L 230 27 L 230 221.476562 L 91 221.476562 Z M 91 27 "/>
</clipPath>
<clipPath id="clip-1">
<path clip-rule="nonzero" d="M 218 107 L 307.476562 107 L 307.476562 133 L 218 133 Z M 218 107 "/>
</clipPath>
<clipPath id="clip-2">
<path clip-rule="nonzero" d="M 0.0664062 62 L 58 62 L 58 87 L 0.0664062 87 Z M 0.0664062 62 "/>
</clipPath>
</defs>
<path fill-rule="nonzero" fill="rgb(100%, 87.998962%, 87.998962%)" fill-opacity="1" d="M 147.339844 165.140625 C 96.375 114.175781 85.050781 57.550781 136.015625 40.5625 C 158.667969 32.066406 175.65625 57.550781 169.992188 83.03125 C 206.800781 60.378906 235.113281 102.851562 206.800781 142.488281 C 189.8125 170.804688 167.160156 193.453125 147.339844 216.105469 C 127.523438 193.453125 104.871094 170.804688 147.339844 165.140625 "/>
<g clip-path="url(#clip-0)">
<path fill="none" stroke-width="0.79701" stroke-linecap="butt" stroke-linejoin="miter" stroke="rgb(59.999084%, 0%, 0%)" stroke-opacity="1" stroke-miterlimit="10" d="M -0.00136088 -0.00000534412 C -51.026193 51.024827 -62.363741 107.716478 -11.338909 124.724756 C 11.340098 133.23085 28.348375 107.716478 22.677646 82.206017 C 59.529566 104.885024 87.875391 62.362375 59.529566 22.679002 C 42.521288 -5.670735 19.842281 -28.345831 -0.00136088 -51.024838 C -19.841092 -28.345831 -42.520099 -5.670735 -0.00136088 -0.00000534412 " transform="matrix(0.998824, 0, 0, -0.998824, 147.341203, 165.14062)"/>
</g>
<path fill="none" stroke-width="0.79701" stroke-linecap="butt" stroke-linejoin="miter" stroke="rgb(0%, 0%, 0%)" stroke-opacity="1" stroke-miterlimit="10" d="M -0.00136088 116.222572 C -5.668179 79.370653 -2.836726 34.01655 -0.00136088 -34.01656 " transform="matrix(0.998824, 0, 0, -0.998824, 147.341203, 165.14062)"/>
<path fill="none" stroke-width="0.79701" stroke-linecap="butt" stroke-linejoin="miter" stroke="rgb(0%, 0%, 0%)" stroke-opacity="1" stroke-miterlimit="10" d="M -36.84937 56.695556 C -17.009638 42.518733 -14.174274 14.172907 -31.182551 -5.670735 " transform="matrix(0.998824, 0, 0, -0.998824, 147.341203, 165.14062)"/>
<path fill="none" stroke-width="0.79701" stroke-linecap="butt" stroke-linejoin="miter" stroke="rgb(0%, 0%, 0%)" stroke-opacity="1" stroke-miterlimit="10" d="M 39.685923 56.695556 C 19.842281 39.687279 17.006917 14.172907 34.015194 -8.502189 " transform="matrix(0.998824, 0, 0, -0.998824, 147.341203, 165.14062)"/>
<path fill="none" stroke-width="2.98883" stroke-linecap="butt" stroke-linejoin="miter" stroke="rgb(0%, 0%, 69.999695%)" stroke-opacity="1" stroke-miterlimit="10" d="M -68.03056 93.543565 C -51.026193 87.876747 -39.684734 82.206017 -28.347186 73.699923 " transform="matrix(0.998824, 0, 0, -0.998824, 147.341203, 165.14062)"/>
<path fill="none" stroke-width="2.98883" stroke-linecap="butt" stroke-linejoin="miter" stroke="rgb(0%, 0%, 69.999695%)" stroke-opacity="1" stroke-miterlimit="10" d="M -70.865925 34.01655 C -51.026193 39.687279 -36.84937 42.518733 -25.511822 39.687279 " transform="matrix(0.998824, 0, 0, -0.998824, 147.341203, 165.14062)"/>
<path fill="none" stroke-width="2.98883" stroke-linecap="butt" stroke-linejoin="miter" stroke="rgb(69.999695%, 0%, 0%)" stroke-opacity="1" stroke-miterlimit="10" d="M 14.171552 121.893302 C 48.188107 141.733033 76.537843 121.893302 56.694201 93.543565 " transform="matrix(0.998824, 0, 0, -0.998824, 147.341203, 165.14062)"/>
<path fill="none" stroke-width="2.98883" stroke-linecap="butt" stroke-linejoin="miter" stroke="rgb(69.999695%, 0%, 0%)" stroke-opacity="1" stroke-miterlimit="10" d="M 34.015194 70.868469 C 68.031749 79.370653 90.710756 62.362375 96.377574 42.518733 " transform="matrix(0.998824, 0, 0, -0.998824, 147.341203, 165.14062)"/>
<g fill="rgb(0%, 0%, 0%)" fill-opacity="1">
<use xlink:href="#glyph-0-0" x="112.190577" y="105.960278"/>
<use xlink:href="#glyph-0-1" x="118.961191" y="105.960278"/>
</g>
<g fill="rgb(0%, 0%, 0%)" fill-opacity="1">
<use xlink:href="#glyph-0-2" x="169.327324" y="106.058163"/>
<use xlink:href="#glyph-0-1" x="175.076972" y="106.058163"/>
</g>
<g fill="rgb(0%, 0%, 0%)" fill-opacity="1">
<use xlink:href="#glyph-0-0" x="116.947978" y="155.360132"/>
</g>
<g fill="rgb(0%, 0%, 0%)" fill-opacity="1">
<use xlink:href="#glyph-0-3" x="122.697626" y="155.360132"/>
</g>
<g fill="rgb(0%, 0%, 0%)" fill-opacity="1">
<use xlink:href="#glyph-0-2" x="168.42139" y="155.360132"/>
</g>
<g fill="rgb(0%, 0%, 0%)" fill-opacity="1">
<use xlink:href="#glyph-0-3" x="173.150073" y="155.360132"/>
</g>
<path fill-rule="nonzero" fill="rgb(100%, 100%, 100%)" fill-opacity="1" stroke-width="0.3985" stroke-linecap="butt" stroke-linejoin="miter" stroke="rgb(0%, 0%, 0%)" stroke-opacity="1" stroke-miterlimit="10" d="M 110.74603 130.97429 L 87.68376 130.97429 C 86.033382 130.97429 84.695872 129.63678 84.695872 127.986403 L 84.695872 121.467019 C 84.695872 119.816641 86.033382 118.479131 87.68376 118.479131 L 110.74603 118.479131 C 112.396407 118.479131 113.733917 119.816641 113.733917 121.467019 L 113.733917 127.986403 C 113.733917 129.63678 112.396407 130.97429 110.74603 130.97429 Z M 110.74603 130.97429 " transform="matrix(0.998824, 0, 0, -0.998824, 147.341203, 165.14062)"/>
<g fill="rgb(0%, 0%, 0%)" fill-opacity="1">
<use xlink:href="#glyph-0-1" x="234.920117" y="43.720538"/>
</g>
<g fill="rgb(0%, 0%, 0%)" fill-opacity="1">
<use xlink:href="#glyph-0-4" x="241.56535" y="43.720538"/>
<use xlink:href="#glyph-0-5" x="246.168651" y="43.720538"/>
<use xlink:href="#glyph-0-6" x="249.768898" y="43.720538"/>
<use xlink:href="#glyph-0-7" x="253.351233" y="43.720538"/>
</g>
<path fill-rule="nonzero" fill="rgb(100%, 100%, 100%)" fill-opacity="1" d="M 299.316406 112.828125 L 227.535156 112.828125 C 225.886719 112.828125 224.550781 114.164062 224.550781 115.8125 L 224.550781 123.863281 C 224.550781 125.511719 225.886719 126.851562 227.535156 126.851562 L 299.316406 126.851562 C 300.964844 126.851562 302.304688 125.511719 302.304688 123.863281 L 302.304688 115.8125 C 302.304688 114.164062 300.964844 112.828125 299.316406 112.828125 Z M 299.316406 112.828125 "/>
<g clip-path="url(#clip-1)">
<path fill="none" stroke-width="0.3985" stroke-linecap="butt" stroke-linejoin="miter" stroke="rgb(0%, 0%, 0%)" stroke-opacity="1" stroke-miterlimit="10" d="M 152.154087 52.37407 L 80.288346 52.37407 C 78.637968 52.37407 77.300458 51.03656 77.300458 49.386182 L 77.300458 41.325924 C 77.300458 39.675546 78.637968 38.334126 80.288346 38.334126 L 152.154087 38.334126 C 153.804465 38.334126 155.145886 39.675546 155.145886 41.325924 L 155.145886 49.386182 C 155.145886 51.03656 153.804465 52.37407 152.154087 52.37407 Z M 152.154087 52.37407 " transform="matrix(0.998824, 0, 0, -0.998824, 147.341203, 165.14062)"/>
</g>
<g fill="rgb(0%, 0%, 0%)" fill-opacity="1">
<use xlink:href="#glyph-0-8" x="227.53481" y="122.029364"/>
<use xlink:href="#glyph-0-9" x="233.794941" y="122.029364"/>
<use xlink:href="#glyph-0-10" x="238.908725" y="122.029364"/>
<use xlink:href="#glyph-0-11" x="241.470095" y="122.029364"/>
<use xlink:href="#glyph-0-4" x="249.136293" y="122.029364"/>
<use xlink:href="#glyph-0-12" x="253.739594" y="122.029364"/>
<use xlink:href="#glyph-0-7" x="258.853377" y="122.029364"/>
<use xlink:href="#glyph-0-5" x="263.456678" y="122.029364"/>
<use xlink:href="#glyph-0-13" x="267.056925" y="122.029364"/>
</g>
<g fill="rgb(0%, 0%, 0%)" fill-opacity="1">
<use xlink:href="#glyph-0-7" x="274.982842" y="122.029364"/>
<use xlink:href="#glyph-0-5" x="279.586143" y="122.029364"/>
<use xlink:href="#glyph-0-6" x="283.18639" y="122.029364"/>
<use xlink:href="#glyph-0-14" x="286.768726" y="122.029364"/>
<use xlink:href="#glyph-0-5" x="290.861544" y="122.029364"/>
<use xlink:href="#glyph-0-13" x="294.461791" y="122.029364"/>
</g>
<path fill-rule="nonzero" fill="rgb(100%, 100%, 100%)" fill-opacity="1" d="M 48.625 68.394531 L 8.222656 68.394531 C 6.574219 68.394531 5.238281 69.730469 5.238281 71.378906 L 5.238281 77.695312 C 5.238281 79.34375 6.574219 80.679688 8.222656 80.679688 L 48.625 80.679688 C 50.273438 80.679688 51.609375 79.34375 51.609375 77.695312 L 51.609375 71.378906 C 51.609375 69.730469 50.273438 68.394531 48.625 68.394531 Z M 48.625 68.394531 "/>
<g clip-path="url(#clip-2)">
<path fill="none" stroke-width="0.3985" stroke-linecap="butt" stroke-linejoin="miter" stroke="rgb(0%, 0%, 0%)" stroke-opacity="1" stroke-miterlimit="10" d="M -98.832398 96.859964 L -139.282298 96.859964 C -140.932675 96.859964 -142.270185 95.522454 -142.270185 93.872077 L -142.270185 87.548235 C -142.270185 85.897858 -140.932675 84.560348 -139.282298 84.560348 L -98.832398 84.560348 C -97.18202 84.560348 -95.84451 85.897858 -95.84451 87.548235 L -95.84451 93.872077 C -95.84451 95.522454 -97.18202 96.859964 -98.832398 96.859964 Z M -98.832398 96.859964 " transform="matrix(0.998824, 0, 0, -0.998824, 147.341203, 165.14062)"/>
</g>
<g fill="rgb(0%, 0%, 0%)" fill-opacity="1">
<use xlink:href="#glyph-0-3" x="8.22595" y="77.498779"/>
</g>
<g fill="rgb(0%, 0%, 0%)" fill-opacity="1">
<use xlink:href="#glyph-0-14" x="14.360699" y="77.498779"/>
<use xlink:href="#glyph-0-12" x="18.453517" y="77.498779"/>
<use xlink:href="#glyph-0-7" x="23.567301" y="77.498779"/>
</g>
<g fill="rgb(0%, 0%, 0%)" fill-opacity="1">
<use xlink:href="#glyph-0-15" x="31.242455" y="77.498779"/>
<use xlink:href="#glyph-0-7" x="35.335273" y="77.498779"/>
</g>
<g fill="rgb(0%, 0%, 0%)" fill-opacity="1">
<use xlink:href="#glyph-0-16" x="39.678855" y="77.498779"/>
</g>
<g fill="rgb(0%, 0%, 0%)" fill-opacity="1">
<use xlink:href="#glyph-0-7" x="44.022436" y="77.498779"/>
</g>
<path fill-rule="nonzero" fill="rgb(100%, 100%, 100%)" fill-opacity="1" stroke-width="0.3985" stroke-linecap="butt" stroke-linejoin="miter" stroke="rgb(0%, 0%, 0%)" stroke-opacity="1" stroke-miterlimit="10" d="M 97.566472 -26.996588 L 66.846762 -26.996588 C 65.196384 -26.996588 63.858874 -28.334098 63.858874 -29.984476 L 63.858874 -38.044734 C 63.858874 -39.699022 65.196384 -41.036532 66.846762 -41.036532 L 97.566472 -41.036532 C 99.21685 -41.036532 100.55436 -39.699022 100.55436 -38.044734 L 100.55436 -29.984476 C 100.55436 -28.334098 99.21685 -26.996588 97.566472 -26.996588 Z M 97.566472 -26.996588 " transform="matrix(0.998824, 0, 0, -0.998824, 147.341203, 165.14062)"/>
<g fill="rgb(0%, 0%, 0%)" fill-opacity="1">
<use xlink:href="#glyph-0-17" x="214.107615" y="201.404934"/>
<use xlink:href="#glyph-0-14" x="219.221399" y="201.404934"/>
<use xlink:href="#glyph-0-18" x="223.314217" y="201.404934"/>
<use xlink:href="#glyph-0-6" x="228.428001" y="201.404934"/>
<use xlink:href="#glyph-0-9" x="232.010336" y="201.404934"/>
<use xlink:href="#glyph-0-11" x="237.12412" y="201.404934"/>
</g>
<path fill="none" stroke-width="0.79701" stroke-linecap="butt" stroke-linejoin="miter" stroke="rgb(0%, 0%, 0%)" stroke-opacity="1" stroke-miterlimit="10" d="M 84.496419 121.783798 L 48.242859 114.533086 " transform="matrix(0.998824, 0, 0, -0.998824, 147.341203, 165.14062)"/>
<path fill-rule="nonzero" fill="rgb(0%, 0%, 0%)" fill-opacity="1" stroke-width="0.79701" stroke-linecap="butt" stroke-linejoin="miter" stroke="rgb(0%, 0%, 0%)" stroke-opacity="1" stroke-miterlimit="10" d="M 4.193759 0.00180425 C 3.68063 0.128379 1.416426 0.852516 -0.000223802 1.646424 L -0.000333512 -1.64407 C 1.414068 -0.854092 3.681389 -0.127037 4.193759 0.00180425 Z M 4.193759 0.00180425 " transform="matrix(-0.979377, 0.195909, 0.195909, 0.979377, 195.528793, 50.743042)"/>
<path fill="none" stroke-width="0.79701" stroke-linecap="butt" stroke-linejoin="miter" stroke="rgb(0%, 0%, 0%)" stroke-opacity="1" stroke-miterlimit="10" d="M 77.101005 49.953255 L 73.827626 50.340429 " transform="matrix(0.998824, 0, 0, -0.998824, 147.341203, 165.14062)"/>
<path fill-rule="nonzero" fill="rgb(0%, 0%, 0%)" fill-opacity="1" stroke-width="0.79701" stroke-linecap="butt" stroke-linejoin="miter" stroke="rgb(0%, 0%, 0%)" stroke-opacity="1" stroke-miterlimit="10" d="M 4.196157 -0.00128477 C 3.680882 0.126934 1.413151 0.855651 0.000609161 1.645913 L -0.000700016 -1.646526 C 1.414004 -0.853401 3.679604 -0.129196 4.196157 -0.00128477 Z M 4.196157 -0.00128477 " transform="matrix(-0.991902, -0.117062, -0.117062, 0.991902, 221.083903, 114.859673)"/>
<path fill="none" stroke-width="0.79701" stroke-linecap="butt" stroke-linejoin="miter" stroke="rgb(0%, 0%, 0%)" stroke-opacity="1" stroke-miterlimit="10" d="M -95.645057 88.760598 L -56.841624 85.526327 " transform="matrix(0.998824, 0, 0, -0.998824, 147.341203, 165.14062)"/>
<path fill-rule="nonzero" fill="rgb(0%, 0%, 0%)" fill-opacity="1" stroke-width="0.79701" stroke-linecap="butt" stroke-linejoin="miter" stroke="rgb(0%, 0%, 0%)" stroke-opacity="1" stroke-miterlimit="10" d="M 4.195281 0.00140859 C 3.678527 0.127089 1.416305 0.852942 0.000172638 1.645402 L -0.000381354 -1.643478 C 1.413431 -0.854509 3.680159 -0.127875 4.195281 0.00140859 Z M 4.195281 0.00140859 " transform="matrix(0.995318, 0.0829723, 0.0829723, -0.995318, 90.56643, 79.71581)"/>
<path fill="none" stroke-width="0.79701" stroke-linecap="butt" stroke-linejoin="miter" stroke="rgb(0%, 0%, 0%)" stroke-opacity="1" stroke-miterlimit="10" d="M 63.659421 -29.54255 L 5.673279 -15.541715 " transform="matrix(0.998824, 0, 0, -0.998824, 147.341203, 165.14062)"/>
<path fill-rule="nonzero" fill="rgb(0%, 0%, 0%)" fill-opacity="1" stroke-width="0.79701" stroke-linecap="butt" stroke-linejoin="miter" stroke="rgb(0%, 0%, 0%)" stroke-opacity="1" stroke-miterlimit="10" d="M 4.193408 0.0008759 C 3.680287 0.126468 1.416207 0.855373 -0.00123539 1.643799 L -0.000442186 -1.643113 C 1.414638 -0.854943 3.681074 -0.126815 4.193408 0.0008759 Z M 4.193408 0.0008759 " transform="matrix(-0.970887, -0.234354, -0.234354, 0.970887, 153.009032, 180.665486)"/>
<g fill="rgb(0%, 0%, 0%)" fill-opacity="1">
<use xlink:href="#glyph-1-0" x="69.711578" y="16.6514"/>
<use xlink:href="#glyph-1-1" x="77.174774" y="16.6514"/>
<use xlink:href="#glyph-1-2" x="80.912343" y="16.6514"/>
<use xlink:href="#glyph-1-3" x="92.113109" y="16.6514"/>
<use xlink:href="#glyph-1-4" x="99.576305" y="16.6514"/>
<use xlink:href="#glyph-1-1" x="103.313874" y="16.6514"/>
<use xlink:href="#glyph-1-5" x="107.051443" y="16.6514"/>
<use xlink:href="#glyph-1-6" x="114.51464" y="16.6514"/>
<use xlink:href="#glyph-1-7" x="120.640431" y="16.6514"/>
</g>
<g fill="rgb(0%, 0%, 0%)" fill-opacity="1">
<use xlink:href="#glyph-1-8" x="132.581546" y="16.6514"/>
<use xlink:href="#glyph-1-6" x="143.089727" y="16.6514"/>
<use xlink:href="#glyph-1-9" x="149.215519" y="16.6514"/>
<use xlink:href="#glyph-1-10" x="155.747308" y="16.6514"/>
<use xlink:href="#glyph-1-11" x="161.240221" y="16.6514"/>
</g>
<g fill="rgb(0%, 0%, 0%)" fill-opacity="1">
<use xlink:href="#glyph-1-12" x="170.948347" y="16.6514"/>
<use xlink:href="#glyph-1-13" x="181.098295" y="16.6514"/>
<use xlink:href="#glyph-1-9" x="188.561491" y="16.6514"/>
<use xlink:href="#glyph-1-11" x="195.093281" y="16.6514"/>
<use xlink:href="#glyph-1-14" x="200.323489" y="16.6514"/>
<use xlink:href="#glyph-1-2" x="207.046337" y="16.6514"/>
</g>
<g fill="rgb(0%, 0%, 0%)" fill-opacity="1">
<use xlink:href="#glyph-1-15" x="217.876928" y="16.6514"/>
</g>
</svg>
